<svg viewBox="300 300 300 600" width="1500px" height="1000px" xmlns="http://www.w3.org/2000/svg" version="1.1">
   <line x1="580" y1="500" x2="570" y2="500" style="stroke:#0bf;stroke-width:1;"/>
   <line x1="432" y1="390" x2="422" y2="390" style="stroke:#0bf;stroke-width:1;"/>
   <line x1="570" y1="500" x2="432" y2="390" style="stroke:#0bf;stroke-width:1;"/>
   <line x1="572.5" y1="500" x2="576.03553390593" y2="503.53553390593" style="stroke:#0bf;stroke-width:2;"/>
   <line x1="572.5" y1="500" x2="576.03553390593" y2="496.46446609407" style="stroke:#0bf;stroke-width:2;"/>
   <line x1="427" y1="390" x2="430.53553390593" y2="393.53553390593" style="stroke:#0bf;stroke-width:2;"/>
   <line x1="427" y1="390" x2="430.53553390593" y2="386.46446609407" style="stroke:#0bf;stroke-width:2;"/>
   <line x1="580" y1="520" x2="570" y2="520" style="stroke:#0bf;stroke-width:1;"/>
   <line x1="432" y1="390" x2="422" y2="390" style="stroke:#0bf;stroke-width:1;"/>
   <line x1="570" y1="520" x2="432" y2="390" style="stroke:#0bf;stroke-width:1;"/>
   <line x1="572.5" y1="520" x2="576.03553390593" y2="523.53553390593" style="stroke:#0bf;stroke-width:2;"/>
   <line x1="572.5" y1="520" x2="576.03553390593" y2="516.46446609407" style="stroke:#0bf;stroke-width:2;"/>
   <line x1="427" y1="390" x2="430.53553390593" y2="393.53553390593" style="stroke:#0bf;stroke-width:2;"/>
   <line x1="427" y1="390" x2="430.53553390593" y2="386.46446609407" style="stroke:#0bf;stroke-width:2;"/>
   <line x1="246" y1="490" x2="256" y2="490" style="stroke:#0bf;stroke-width:1;"/>
   <line x1="330" y1="390" x2="340" y2="390" style="stroke:#0bf;stroke-width:1;"/>
   <line x1="256" y1="490" x2="330" y2="390" style="stroke:#0bf;stroke-width:1;"/>
   <line x1="253.5" y1="490" x2="249.96446609407" y2="493.53553390593" style="stroke:#0bf;stroke-width:2;"/>
   <line x1="253.5" y1="490" x2="249.96446609407" y2="486.46446609407" style="stroke:#0bf;stroke-width:2;"/>
   <line x1="335" y1="390" x2="331.46446609407" y2="393.53553390593" style="stroke:#0bf;stroke-width:2;"/>
   <line x1="335" y1="390" x2="331.46446609407" y2="386.46446609407" style="stroke:#0bf;stroke-width:2;"/>
   <line x1="580" y1="700" x2="570" y2="700" style="stroke:#bbb;stroke-width:1;"/>
   <line x1="432" y1="390" x2="422" y2="390" style="stroke:#bbb;stroke-width:1;"/>
   <line x1="570" y1="700" x2="432" y2="390" style="stroke:#bbb;stroke-width:1;"/>
   <line x1="572.5" y1="700" x2="576.03553390593" y2="703.53553390593" style="stroke:#bbb;stroke-width:2;"/>
   <line x1="572.5" y1="700" x2="576.03553390593" y2="696.46446609407" style="stroke:#bbb;stroke-width:2;"/>
   <line x1="427" y1="390" x2="430.53553390593" y2="393.53553390593" style="stroke:#bbb;stroke-width:2;"/>
   <line x1="427" y1="390" x2="430.53553390593" y2="386.46446609407" style="stroke:#bbb;stroke-width:2;"/>
   <line x1="580" y1="680" x2="570" y2="680" style="stroke:#cb0;stroke-width:1;"/>
   <line x1="432" y1="390" x2="422" y2="390" style="stroke:#cb0;stroke-width:1;"/>
   <line x1="570" y1="680" x2="432" y2="390" style="stroke:#cb0;stroke-width:1;"/>
   <line x1="572.5" y1="680" x2="576.03553390593" y2="683.53553390593" style="stroke:#cb0;stroke-width:2;"/>
   <line x1="572.5" y1="680" x2="576.03553390593" y2="676.46446609407" style="stroke:#cb0;stroke-width:2;"/>
   <line x1="427" y1="390" x2="430.53553390593" y2="393.53553390593" style="stroke:#cb0;stroke-width:2;"/>
   <line x1="427" y1="390" x2="430.53553390593" y2="386.46446609407" style="stroke:#cb0;stroke-width:2;"/>
   <line x1="580" y1="600" x2="570" y2="600" style="stroke:#bbb;stroke-width:1;"/>
   <line x1="570" y1="540" x2="580" y2="540" style="stroke:#bbb;stroke-width:1;"/>
   <line x1="570" y1="600" x2="570" y2="540" style="stroke:#bbb;stroke-width:1;"/>
   <line x1="572.5" y1="600" x2="576.03553390593" y2="603.53553390593" style="stroke:#bbb;stroke-width:2;"/>
   <line x1="572.5" y1="600" x2="576.03553390593" y2="596.46446609407" style="stroke:#bbb;stroke-width:2;"/>
   <line x1="575" y1="540" x2="571.46446609407" y2="543.53553390593" style="stroke:#bbb;stroke-width:2;"/>
   <line x1="575" y1="540" x2="571.46446609407" y2="536.46446609407" style="stroke:#bbb;stroke-width:2;"/>
   <line x1="790" y1="600" x2="780" y2="600" style="stroke:#bbb;stroke-width:1;"/>
   <line x1="691" y1="600" x2="681" y2="600" style="stroke:#bbb;stroke-width:1;"/>
   <line x1="780" y1="600" x2="691" y2="600" style="stroke:#bbb;stroke-width:1;"/>
   <line x1="782.5" y1="600" x2="786.03553390593" y2="603.53553390593" style="stroke:#bbb;stroke-width:2;"/>
   <line x1="782.5" y1="600" x2="786.03553390593" y2="596.46446609407" style="stroke:#bbb;stroke-width:2;"/>
   <line x1="686" y1="600" x2="689.53553390593" y2="603.53553390593" style="stroke:#bbb;stroke-width:2;"/>
   <line x1="686" y1="600" x2="689.53553390593" y2="596.46446609407" style="stroke:#bbb;stroke-width:2;"/>
   <line x1="879" y1="620" x2="889" y2="620" style="stroke:#cb0;stroke-width:1;"/>
   <line x1="889" y1="670" x2="879" y2="670" style="stroke:#cb0;stroke-width:1;"/>
   <line x1="889" y1="620" x2="889" y2="670" style="stroke:#cb0;stroke-width:1;"/>
   <line x1="886.5" y1="620" x2="882.96446609407" y2="623.53553390593" style="stroke:#cb0;stroke-width:2;"/>
   <line x1="886.5" y1="620" x2="882.96446609407" y2="616.46446609407" style="stroke:#cb0;stroke-width:2;"/>
   <line x1="884" y1="670" x2="887.53553390593" y2="673.53553390593" style="stroke:#cb0;stroke-width:2;"/>
   <line x1="884" y1="670" x2="887.53553390593" y2="666.46446609407" style="stroke:#cb0;stroke-width:2;"/>
   <line x1="250" y1="370" x2="260" y2="370" style="stroke:#cb0;stroke-width:1;"/>
   <line x1="330" y1="390" x2="340" y2="390" style="stroke:#cb0;stroke-width:1;"/>
   <line x1="260" y1="370" x2="330" y2="390" style="stroke:#cb0;stroke-width:1;"/>
   <line x1="257.5" y1="370" x2="253.96446609407" y2="373.53553390593" style="stroke:#cb0;stroke-width:2;"/>
   <line x1="257.5" y1="370" x2="253.96446609407" y2="366.46446609407" style="stroke:#cb0;stroke-width:2;"/>
   <line x1="335" y1="390" x2="331.46446609407" y2="393.53553390593" style="stroke:#cb0;stroke-width:2;"/>
   <line x1="335" y1="390" x2="331.46446609407" y2="386.46446609407" style="stroke:#cb0;stroke-width:2;"/>
   <line x1="340" y1="510" x2="330" y2="510" style="stroke:#b0b;stroke-width:1;"/>
   <line x1="330" y1="580" x2="340" y2="580" style="stroke:#b0b;stroke-width:1;"/>
   <line x1="330" y1="510" x2="330" y2="580" style="stroke:#b0b;stroke-width:1;"/>
   <line x1="332.5" y1="510" x2="336.03553390593" y2="513.53553390593" style="stroke:#b0b;stroke-width:2;"/>
   <line x1="332.5" y1="510" x2="336.03553390593" y2="506.46446609407" style="stroke:#b0b;stroke-width:2;"/>
   <line x1="335" y1="580" x2="331.46446609407" y2="583.53553390593" style="stroke:#b0b;stroke-width:2;"/>
   <line x1="335" y1="580" x2="331.46446609407" y2="576.46446609407" style="stroke:#b0b;stroke-width:2;"/>
   <rect width="96" height="20" x="580" y="330" style="fill:#007;stroke:black;"/>
   <text width="96" height="20" x="585" y="344" style="fill:#fff;" font-family="Arial" font-size="16px"> notifications</text>
   <rect width="96" height="20" x="580" y="350" style="fill:#aea;stroke:black;"/>
   <text width="96" height="20" x="585" y="364" style="fill:black;" font-family="Arial" font-size="16px">id</text>
   <rect width="96" height="20" x="580" y="370" style="fill:none;stroke:black;"/>
   <text width="96" height="20" x="585" y="384" style="fill:black;" font-family="Arial" font-size="16px">id_reply</text>
   <rect width="96" height="20" x="580" y="390" style="fill:none;stroke:black;"/>
   <text width="96" height="20" x="585" y="404" style="fill:black;" font-family="Arial" font-size="16px">title</text>
   <rect width="96" height="20" x="580" y="410" style="fill:none;stroke:black;"/>
   <text width="96" height="20" x="585" y="424" style="fill:black;" font-family="Arial" font-size="16px">description</text>
   <rect width="96" height="20" x="580" y="430" style="fill:none;stroke:black;"/>
   <text width="96" height="20" x="585" y="444" style="fill:black;" font-family="Arial" font-size="16px">created_at</text>
   <rect width="96" height="20" x="580" y="450" style="fill:none;stroke:black;"/>
   <text width="96" height="20" x="585" y="464" style="fill:black;" font-family="Arial" font-size="16px">importance</text>
   <rect width="96" height="20" x="580" y="470" style="fill:none;stroke:black;"/>
   <text width="96" height="20" x="585" y="484" style="fill:black;" font-family="Arial" font-size="16px">type</text>
   <rect width="96" height="20" x="580" y="490" style="fill:none;stroke:black;"/>
   <text width="96" height="20" x="585" y="504" style="fill:black;" font-family="Arial" font-size="16px">id_sender</text>
   <rect width="96" height="20" x="580" y="510" style="fill:none;stroke:black;"/>
   <text width="96" height="20" x="585" y="524" style="fill:black;" font-family="Arial" font-size="16px">id_receiver</text>
   <rect width="96" height="20" x="580" y="530" style="fill:none;stroke:black;"/>
   <text width="96" height="20" x="585" y="544" style="fill:black;" font-family="Arial" font-size="16px">id_project</text>
   <rect width="86" height="20" x="160" y="440" style="fill:#007;stroke:black;"/>
   <text width="86" height="20" x="165" y="454" style="fill:#fff;" font-family="Arial" font-size="16px"> professors</text>
   <rect width="86" height="20" x="160" y="460" style="fill:#aea;stroke:black;"/>
   <text width="86" height="20" x="165" y="474" style="fill:black;" font-family="Arial" font-size="16px">id</text>
   <rect width="86" height="20" x="160" y="480" style="fill:none;stroke:black;"/>
   <text width="86" height="20" x="165" y="494" style="fill:black;" font-family="Arial" font-size="16px">id_user</text>
   <rect width="86" height="20" x="160" y="500" style="fill:none;stroke:black;"/>
   <text width="86" height="20" x="165" y="514" style="fill:black;" font-family="Arial" font-size="16px">grade</text>
   <rect width="101" height="20" x="580" y="570" style="fill:#007;stroke:black;"/>
   <text width="101" height="20" x="585" y="584" style="fill:#fff;" font-family="Arial" font-size="16px"> projects</text>
   <rect width="101" height="20" x="580" y="590" style="fill:#aea;stroke:black;"/>
   <text width="101" height="20" x="585" y="604" style="fill:black;" font-family="Arial" font-size="16px">id</text>
   <rect width="101" height="20" x="580" y="610" style="fill:none;stroke:black;"/>
   <text width="101" height="20" x="585" y="624" style="fill:black;" font-family="Arial" font-size="16px">title</text>
   <rect width="101" height="20" x="580" y="630" style="fill:none;stroke:black;"/>
   <text width="101" height="20" x="585" y="644" style="fill:black;" font-family="Arial" font-size="16px">description</text>
   <rect width="101" height="20" x="580" y="650" style="fill:none;stroke:black;"/>
   <text width="101" height="20" x="585" y="664" style="fill:black;" font-family="Arial" font-size="16px">year</text>
   <rect width="101" height="20" x="580" y="670" style="fill:none;stroke:black;"/>
   <text width="101" height="20" x="585" y="684" style="fill:black;" font-family="Arial" font-size="16px">id_prof</text>
   <rect width="101" height="20" x="580" y="690" style="fill:none;stroke:black;"/>
   <text width="101" height="20" x="585" y="704" style="fill:black;" font-family="Arial" font-size="16px">id_student</text>
   <rect width="101" height="20" x="580" y="710" style="fill:none;stroke:black;"/>
   <text width="101" height="20" x="585" y="724" style="fill:black;" font-family="Arial" font-size="16px">resources</text>
   <rect width="101" height="20" x="580" y="730" style="fill:none;stroke:black;"/>
   <text width="101" height="20" x="585" y="744" style="fill:black;" font-family="Arial" font-size="16px">created_at</text>
   <rect width="101" height="20" x="580" y="750" style="fill:none;stroke:black;"/>
   <text width="101" height="20" x="585" y="764" style="fill:black;" font-family="Arial" font-size="16px">date_started</text>
   <rect width="101" height="20" x="580" y="770" style="fill:none;stroke:black;"/>
   <text width="101" height="20" x="585" y="784" style="fill:black;" font-family="Arial" font-size="16px">date_finished</text>
   <rect width="101" height="20" x="580" y="790" style="fill:none;stroke:black;"/>
   <text width="101" height="20" x="585" y="804" style="fill:black;" font-family="Arial" font-size="16px">mark</text>
   <rect width="89" height="20" x="790" y="550" style="fill:#007;stroke:black;"/>
   <text width="89" height="20" x="795" y="564" style="fill:#fff;" font-family="Arial" font-size="16px"> project_tags</text>
   <rect width="89" height="20" x="790" y="570" style="fill:#aea;stroke:black;"/>
   <text width="89" height="20" x="795" y="584" style="fill:black;" font-family="Arial" font-size="16px">id</text>
   <rect width="89" height="20" x="790" y="590" style="fill:none;stroke:black;"/>
   <text width="89" height="20" x="795" y="604" style="fill:black;" font-family="Arial" font-size="16px">id_project</text>
   <rect width="89" height="20" x="790" y="610" style="fill:none;stroke:black;"/>
   <text width="89" height="20" x="795" y="624" style="fill:black;" font-family="Arial" font-size="16px">id_tag</text>
   <rect width="119" height="20" x="340" y="550" style="fill:#007;stroke:black;"/>
   <text width="119" height="20" x="345" y="564" style="fill:#fff;" font-family="Arial" font-size="16px"> settings</text>
   <rect width="119" height="20" x="340" y="570" style="fill:#aea;stroke:black;"/>
   <text width="119" height="20" x="345" y="584" style="fill:black;" font-family="Arial" font-size="16px">id</text>
   <rect width="119" height="20" x="340" y="590" style="fill:none;stroke:black;"/>
   <text width="119" height="20" x="345" y="604" style="fill:black;" font-family="Arial" font-size="16px">elem_news</text>
   <rect width="119" height="20" x="340" y="610" style="fill:none;stroke:black;"/>
   <text width="119" height="20" x="345" y="624" style="fill:black;" font-family="Arial" font-size="16px">elem_projects</text>
   <rect width="119" height="20" x="340" y="630" style="fill:none;stroke:black;"/>
   <text width="119" height="20" x="345" y="644" style="fill:black;" font-family="Arial" font-size="16px">col_background</text>
   <rect width="119" height="20" x="340" y="650" style="fill:none;stroke:black;"/>
   <text width="119" height="20" x="345" y="664" style="fill:black;" font-family="Arial" font-size="16px">col_border</text>
   <rect width="119" height="20" x="340" y="670" style="fill:none;stroke:black;"/>
   <text width="119" height="20" x="345" y="684" style="fill:black;" font-family="Arial" font-size="16px">col_text</text>
   <rect width="119" height="20" x="340" y="690" style="fill:none;stroke:black;"/>
   <text width="119" height="20" x="345" y="704" style="fill:black;" font-family="Arial" font-size="16px">col_select</text>
   <rect width="119" height="20" x="340" y="710" style="fill:none;stroke:black;"/>
   <text width="119" height="20" x="345" y="724" style="fill:black;" font-family="Arial" font-size="16px">imp_deadline</text>
   <rect width="119" height="20" x="340" y="730" style="fill:none;stroke:black;"/>
   <text width="119" height="20" x="345" y="744" style="fill:black;" font-family="Arial" font-size="16px">imp_meeting</text>
   <rect width="119" height="20" x="340" y="750" style="fill:none;stroke:black;"/>
   <text width="119" height="20" x="345" y="764" style="fill:black;" font-family="Arial" font-size="16px">imp_consult</text>
   <rect width="119" height="20" x="340" y="770" style="fill:none;stroke:black;"/>
   <text width="119" height="20" x="345" y="784" style="fill:black;" font-family="Arial" font-size="16px">imp_others</text>
   <rect width="119" height="20" x="340" y="790" style="fill:none;stroke:black;"/>
   <text width="119" height="20" x="345" y="804" style="fill:black;" font-family="Arial" font-size="16px">imp_changes</text>
   <rect width="119" height="20" x="340" y="810" style="fill:none;stroke:black;"/>
   <text width="119" height="20" x="345" y="824" style="fill:black;" font-family="Arial" font-size="16px">imp_message</text>
   <rect width="119" height="20" x="340" y="830" style="fill:none;stroke:black;"/>
   <text width="119" height="20" x="345" y="844" style="fill:black;" font-family="Arial" font-size="16px">imp_automatic</text>
   <rect width="119" height="20" x="340" y="850" style="fill:none;stroke:black;"/>
   <text width="119" height="20" x="345" y="864" style="fill:black;" font-family="Arial" font-size="16px">imp_elim</text>
   <rect width="80" height="20" x="170" y="320" style="fill:#007;stroke:black;"/>
   <text width="80" height="20" x="175" y="334" style="fill:#fff;" font-family="Arial" font-size="16px"> students</text>
   <rect width="80" height="20" x="170" y="340" style="fill:#aea;stroke:black;"/>
   <text width="80" height="20" x="175" y="354" style="fill:black;" font-family="Arial" font-size="16px">id</text>
   <rect width="80" height="20" x="170" y="360" style="fill:none;stroke:black;"/>
   <text width="80" height="20" x="175" y="374" style="fill:black;" font-family="Arial" font-size="16px">id_user</text>
   <rect width="80" height="20" x="170" y="380" style="fill:none;stroke:black;"/>
   <text width="80" height="20" x="175" y="394" style="fill:black;" font-family="Arial" font-size="16px">year</text>
   <rect width="80" height="20" x="170" y="400" style="fill:none;stroke:black;"/>
   <text width="80" height="20" x="175" y="414" style="fill:black;" font-family="Arial" font-size="16px">repository</text>
   <rect width="80" height="20" x="170" y="420" style="fill:none;stroke:black;"/>
   <text width="80" height="20" x="175" y="434" style="fill:black;" font-family="Arial" font-size="16px">calendar</text>
   <rect width="39" height="20" x="840" y="640" style="fill:#007;stroke:black;"/>
   <text width="39" height="20" x="845" y="654" style="fill:#fff;" font-family="Arial" font-size="16px"> tags</text>
   <rect width="39" height="20" x="840" y="660" style="fill:#aea;stroke:black;"/>
   <text width="39" height="20" x="845" y="674" style="fill:black;" font-family="Arial" font-size="16px">id</text>
   <rect width="39" height="20" x="840" y="680" style="fill:none;stroke:black;"/>
   <text width="39" height="20" x="845" y="694" style="fill:black;" font-family="Arial" font-size="16px">tag</text>
   <rect width="82" height="20" x="340" y="360" style="fill:#007;stroke:black;"/>
   <text width="82" height="20" x="345" y="374" style="fill:#fff;" font-family="Arial" font-size="16px"> users</text>
   <rect width="82" height="20" x="340" y="380" style="fill:#aea;stroke:black;"/>
   <text width="82" height="20" x="345" y="394" style="fill:black;" font-family="Arial" font-size="16px">id</text>
   <rect width="82" height="20" x="340" y="400" style="fill:none;stroke:black;"/>
   <text width="82" height="20" x="345" y="414" style="fill:black;" font-family="Arial" font-size="16px">created_at</text>
   <rect width="82" height="20" x="340" y="420" style="fill:none;stroke:black;"/>
   <text width="82" height="20" x="345" y="434" style="fill:black;" font-family="Arial" font-size="16px">confirmed</text>
   <rect width="82" height="20" x="340" y="440" style="fill:none;stroke:black;"/>
   <text width="82" height="20" x="345" y="454" style="fill:black;" font-family="Arial" font-size="16px">name</text>
   <rect width="82" height="20" x="340" y="460" style="fill:none;stroke:black;"/>
   <text width="82" height="20" x="345" y="474" style="fill:black;" font-family="Arial" font-size="16px">surname</text>
   <rect width="82" height="20" x="340" y="480" style="fill:none;stroke:black;"/>
   <text width="82" height="20" x="345" y="494" style="fill:black;" font-family="Arial" font-size="16px">email</text>
   <rect width="82" height="20" x="340" y="500" style="fill:none;stroke:black;"/>
   <text width="82" height="20" x="345" y="514" style="fill:black;" font-family="Arial" font-size="16px">id_settings</text>
   <rect width="82" height="20" x="340" y="520" style="fill:none;stroke:black;"/>
   <text width="82" height="20" x="345" y="534" style="fill:black;" font-family="Arial" font-size="16px">pass</text>
</svg>